<svg width="96" height="96" viewBox="0 0 96 96" fill="none" xmlns="http://www.w3.org/2000/svg">
<path d="M48 9C40.2865 9 32.7463 11.2873 26.3328 15.5727C19.9193 19.8581 14.9205 25.949 11.9687 33.0753C9.0169 40.2017 8.24457 48.0433 9.74939 55.6085C11.2542 63.1738 14.9686 70.1229 20.4229 75.5772C25.8771 81.0314 32.8262 84.7458 40.3915 86.2506C47.9568 87.7554 55.7984 86.9831 62.9247 84.0313C70.051 81.0795 76.142 76.0808 80.4273 69.6672C84.7127 63.2537 87 55.7135 87 48C86.9891 37.6599 82.8767 27.7464 75.5651 20.4349C68.2536 13.1233 58.3401 9.01092 48 9ZM15 48C15.0099 39.2509 18.4899 30.863 24.6765 24.6764C30.863 18.4899 39.2509 15.0099 48 15V81C39.2509 80.9901 30.863 77.5101 24.6765 71.3236C18.4899 65.137 15.0099 56.7491 15 48Z" fill="#3273DC"/>
</svg>
