<?xml version="1.0" standalone="no"?>
<!DOCTYPE svg PUBLIC "-//W3C//DTD SVG 1.1//EN" "http://www.w3.org/Graphics/SVG/1.1/DTD/svg11.dtd">
<svg xmlns="http://www.w3.org/2000/svg">
  <defs>
    <font id="BricolageGrotesque" horiz-adv-x="539">
      <font-face font-family="Bricolage Grotesque 96pt ExtraBold" units-per-em="1000" panose-1="2 11 6 5 4 4 2 0 2 4" ascent="930" descent="-270" alphabetic="0" />
      <glyph unicode=" " glyph-name="gid170" horiz-adv-x="230" />
      <glyph unicode="!" glyph-name="gid180" horiz-adv-x="291" d="M100,212L62,660H226L189,212H100ZM145-13Q98-13 74.5,7T51,69q0,43 23.5,63T145,152t71-20t24-63q0-82-95-82Z" />
      <glyph unicode="&quot;" glyph-name="gid212" horiz-adv-x="360" d="M40,462L23,715H155L137,462H40Zm182,0L205,715H337L319,462H222Z" />
      <glyph unicode="#" glyph-name="gid187" horiz-adv-x="626" d="M280,0L447,660H572L404,0H280ZM18,168V273H584V168H18ZM42,0L210,660H334L166,0H42ZM41,415V518H607V415H41Z" />
      <glyph unicode="$" glyph-name="gid227" horiz-adv-x="642" d="M269,643L245,783H380L356,643H269ZM245-126L269,13h87l24-139H245ZM322,1Q259,1 208.5,13T122,49T66,109.5T43,196l124,38q1-43 22-71.5T246.5,120T329,106q45,0 75,11t46,29t16,39q0,25-19.5,40.5t-54,25.5T316,271q-49,11-95.5,24t-84,34.5t-60,55T54,469q0,58 30.5,101t88,67T312,661q81,0 140-23.5t91.5-66T578,471L451,436q0,29-9.5,51T414,524.5t-44,23T311,555q-39,0-66.5-9.5t-42-26.5T188,481q0-26 22-43t59-28t81-20q42-9 85.5-21.5t81-33.5t61-55.5T601,190q0-57-31.5-100T476,24T322,1Z" />
      <glyph unicode="%" glyph-name="gid243" horiz-adv-x="977" d="M216,315q-55,0-98.5,20.5t-68,63T25,505q0,55 17,92.5T87,657t63,32t70,10q55,0 98.5-20.5t68.5-63T412,508q0-72-29-114.5T309,333t-93-18Zm4,107q19,0 36,7.5T283.5,455T294,503q0,33-11,52t-29,28t-38,9q-19,0-36-8t-27.5-26T142,509t11.5-50.5t29.5-28t37-8.5ZM756-42q-55,0-98.5,20.5t-68,63T565,148q0,55 17,92.5T627,300t63,32t70,10q55,0 98.5-20.5t68.5-63T952,151q0-72-29-114.5T849-24T756-42Zm4,107q19,0 36,7.5T823.5,98T834,147q0,32-11,51t-29,28t-38,9q-19,0-36-8t-27.5-25.5T682,153t11.5-51T723,73.5T760,65ZM216,0L609,660H749L356,0H216Z" />
      <glyph unicode="&amp;" glyph-name="gid215" horiz-adv-x="754" d="M558-14q-53,0-103.5,25t-96,67.5t-83,95T210,282.5T167,393t-15,98q0,49 21,91t65.5,67.5T352,675q64,0 107-21.5T524.5,597T547,519q0-33-16-63t-52-54t-98-42l-9,16q21,28 32.5,56.5T416,491q0,29-13.5,50.5T356,563q-22,0-35.5-9.5t-19.5-26T295,490q0-28 11-66.5t30-82T380.5,256t55-76t61-54.5T557,105q22,0 35.5,11T606,145q0,20-15.5,40T546,222t-71,27V359H705V255L527,284V264q104-19 151.5-55T726,114q0-39-18-64.5t-45.5-39t-56-19T558-14ZM195-14q-50,0-90,17.5t-63,52T19,139q0,48 21,81t53,52.5T160,302t62,13l3-20q-36-24-53.5-54T154,180q0-30 14.5-52.5t40-34.5T266,81q26,0 48.5,9.5T357,117l17-39H353q-15-30-37-50.5t-52-31T195-14Z" />
      <glyph unicode="&apos;" glyph-name="gid213" horiz-adv-x="177" d="M40,462L23,715H155L137,462H40Z" />
      <glyph unicode="(" glyph-name="gid196" horiz-adv-x="321" d="M307,708q-28-55-47.5-109.5T227.5,491T209,387.5T203,289q0-75 13-146.5T252,6t55-122H153Q118-49 96,20T64.5,158.5T55,295t9.5,136t31,138.5T152,708H307Z" />
      <glyph unicode=")" glyph-name="gid197" horiz-adv-x="316" d="M10,708H164q36-69 57-138.5T251.5,431T261,295t-9.5-136.5T220.5,20T163-116H9Q41-59 64,6t36,136.5T113,289q0,48-6,98.5T88.5,491t-32,107.5T10,708Z" />
      <glyph unicode="*" glyph-name="gid186" horiz-adv-x="436" d="M153,319L47,395l105,95l-2,8L9,515L47,643l126-73l5,5L150,715H285L257,575l6-5l123,73l40-128L286,498l-1-8l104-95L283,319L222,447h-8L153,319Z" />
      <glyph unicode="+" glyph-name="gid231" horiz-adv-x="528" d="M206,117V530H322V117H206ZM58,269V379H470V269H58Z" />
      <glyph unicode="," glyph-name="gid176" horiz-adv-x="196" d="M4-132Q22-86 29.5-46t9,80.5T40,123H172q0-68-8-116.5t-21.5-82T115-132H4Z" />
      <glyph unicode="-" glyph-name="gid192" horiz-adv-x="352" d="M30,201V331H322V201H30Z" />
      <glyph unicode="." glyph-name="gid175" horiz-adv-x="233" d="M116-13Q69-13 45.5,7T22,69q0,43 23.5,63T116,152q48,0 71.5-20T211,69q0-82-95-82Z" />
      <glyph unicode="/" glyph-name="gid188" horiz-adv-x="361" d="M-10-87L238,712H371L123-87H-10Z" />
      <glyph unicode="0" glyph-name="gid123" horiz-adv-x="665" d="M331-14Q268-14 215.5,9T126,75.5t-57,107T49,327q0,114 37,191T188,634t147,39q85,0 148.5-40t98-116.5T616,330q0-83-20.5-147.5T537,74.5t-90-66T331-14Zm3,114q26,0 50.5,12T429,150.5t32,69T473,325q0,75-18,127.5t-49,80T333,560q-33,0-65-21.5T214.5,467T193,330q0-61 11.5-104.5t31-71t45-41T334,100Z" />
      <glyph unicode="1" glyph-name="gid124" horiz-adv-x="346" d="M128,0V452H31V578q47,0 77.5,16.5T148,660H273V0H128Z" />
      <glyph unicode="2" glyph-name="gid125" horiz-adv-x="603" d="M43,0V147L299,316q18,11 36.5,26t34,34T395,417.5T405,467t-12.5,47t-36,30.5T299,555t-56.5-10.5t-36-30t-19-46.5T182,409L44,437q-2,74 28.5,127.5T161,647t141,29q72,0 127.5-22.5t86.5-67T547,477q0-50-16.5-90t-43-71.5t-58-55.5T368,218L210,121v-9l348,5V0H43Z" />
      <glyph unicode="3" glyph-name="gid126" horiz-adv-x="606" d="M289-14Q224-14 175.5-1T95,37T45,98T23,178l130,41q2-31 13-54t29-38t43-22t54-7q38,0 67.5,11t46,34T422,201q0,44-30,72t-89,38.5T155,314v82L377,538v9L56,544V661H522V526L314,386v-9q95,5 149.5-19t78-67.5T565,196q0-64-30-111T444,12T289-14Z" />
      <glyph unicode="4" glyph-name="gid127" horiz-adv-x="624" d="M24,130V269q49,57 87,109t66.5,99.5T226,571t35,90H510V0H368V565H358q-25-62-55.5-116.5T237.5,346T165,254V244H601V130H24Z" />
      <glyph unicode="5" glyph-name="gid128" horiz-adv-x="610" d="M300-14Q225-14 168,8T79.5,70.5T47,168l136,27q6-47 38-70.5T300,101q55,0 85,30.5T415,224q0,28-6,51t-18.5,39.5T358,340t-48,9q-19,0-34.5-5T247,330.5T223,309t-20-31H59L83,660H534V540H203L188,352h12q21,51 66.5,76T367,453q65,0 108.5-28T541,346.5T563,227q0-84-33-137.5T437.5,11T300-14Z" />
      <glyph unicode="6" glyph-name="gid129" horiz-adv-x="657" d="M352-16Q204-16 126.5,71.5T49,324q0,115 36,193.5T188,636t159,40q48,0 89-11t72.5-34T561,572.5T590,490L455,455q-5,39-24,60.5t-43.5,31T338,556q-38,0-66-18.5t-46-51t-26.5-74T191,324q0-22 2.5-50.5T201,219h10q-1,54 16.5,91T274,369t63.5,31.5T405,410q55,0 101.5-22.5t75-67.5T610,209q0-41-13-80.5T553.5,56T474,3.5T352-16Zm-6,116q28,0 50,8t37.5,22T457,163.5t8,42.5q0,32-15,55.5t-39.5,36T355,310q-34,0-61-14.5T250.5,255T234,195q0-27 10-45t26-29.5t36-16t40-4.5Z" />
      <glyph unicode="7" glyph-name="gid130" horiz-adv-x="509" d="M120,0q0,67 14.5,137.5t43.5,141T252.5,415T361,538v9L22,543V661H489V541q-43-42-81.5-101.5t-67-130t-45-149T279,0H120Z" />
      <glyph unicode="8" glyph-name="gid131" horiz-adv-x="656" d="M328-16Q243-16 180,4T82,65.5T47,168q0,47 19.5,80.5t54,54.5T200,329v8l128,23l128-22v-9q45-5 79.5-25T589,250t19-82q0-61-34.5-102.5T476,4T328-16Zm1,120q22,0 45.5,4.5T418,123t32.5,27T463,192q0,30-18,49t-49,28t-68,9q-38,0-68-9t-48-27.5T194,193q0-24 12.5-41.5t32.5-28t43.5-15T329,104Zm-1,281q29,0 53.5,8.5t40,27.5T437,470q0,25-10.5,41.5t-27,26.5T364,552.5T327,557q-26,0-50.5-8t-41-27T219,471q0-30 14.5-49.5t39.5-28t55-8.5Zm0-88L200,327v14q-43,7-72,26T84.5,417T70,488q0,64 33,105.5t91,62T328,676q78,0 135.5-21.5t89-63T584,488q0-58-30.5-96T456,341V328L328,297Z" />
      <glyph unicode="9" glyph-name="gid132" horiz-adv-x="652" d="M303-16q-52,0-94.5,11T134,28.5T81,84T52,161l134,35q7-28 20-45.5T235,123t34-14t36-4q41,0 71.5,17.5t48.5,48t27,72t9,87.5q0,17-1.5,35.5t-4,38.5T450,442H439q2-54-15-90.5t-46-59t-63.5-32T248,251q-52,0-98,23T75.5,342.5T47,453q0,40 13,79.5T102.5,605T180,657t117,19q100,0 167.5-41t103-120T603,325q0-113-36-189T464,22T303-16Zm-5,367q32,0 58.5,14.5t42,40T414,466q0,36-16.5,56.5T356,552t-50,9q-26,0-47.5-8t-36-22T200,497.5T192,455q0-31 14-55t38-36.5T298,351Z" />
      <glyph unicode=":" glyph-name="gid177" horiz-adv-x="243" d="M121,3Q74,3 50.5,23T27,85q0,43 23.5,63T121,168q48,0 71.5-20T216,85q0-82-95-82Zm0,347q-47,0-70.5,20T27,432q0,43 23.5,63T121,515q48,0 71.5-20T216,432q0-82-95-82Z" />
      <glyph unicode=";" glyph-name="gid178" horiz-adv-x="220" d="M6-132Q24-86 31.5-46t9,80.5T42,123H174q0-68-8-116.5t-21.5-82T117-132H6Zm95,482q-47,0-70.5,20T7,432q0,43 23.5,63T101,515q48,0 71.5-20T196,432q0-82-95-82Z" />
      <glyph unicode="&lt;" glyph-name="gid237" horiz-adv-x="528" d="M470,69L58,244V427L470,602V450L178,340V325L470,215V69Z" />
      <glyph unicode="=" glyph-name="gid235" horiz-adv-x="528" d="M58,362V490H470V362H58Zm0-216V273H470V146H58Z" />
      <glyph unicode="&gt;" glyph-name="gid236" horiz-adv-x="528" d="M58,69V215L350,325v15L58,450V602L470,427V244L58,69Z" />
      <glyph unicode="?" glyph-name="gid182" horiz-adv-x="421" d="M104,212q-5,46 5,76t28,50t39.5,34.5t41,28.5t32,32.5T262,480q0,38-23.5,56T177,554q-23,0-48.5-6T78,531T29,505L21,628q27,16 56,26t59,15.5t58,5.5q42,0 80-11t66.5-33.5T386,575t17-79q0-42-14-70t-35.5-48T308,342t-45-33t-33.5-40T219,212H104ZM168-13Q121-13 97.5,7T74,69q0,43 23.5,63T168,152q48,0 71.5-20T263,69q0-82-95-82Z" />
      <glyph unicode="@" glyph-name="gid214" horiz-adv-x="987" d="M493-132q-106,0-188,26T166-29T79.5,97.5T50,273q0,99 29.5,174T166,573.5T305,651t188,26q104,0 186.5-26t140-77.5T907,447t30-174q0-100-30-175.5T819.5-29t-140-77T493-132Zm0,117q107,0 178.5,31T779,110.5T815,273q0,98-36,162T671,530T493,561q-108,0-179.5-31T207,435.5T172,273t35-162.5T313.5,16T493-15ZM461,155q14,0 29,4t28,12.5t24.5,21T560,222l-1,70l14-6q-11-15-30.5-22t-43-11t-44-9T422,228.5T409,198q0-21 15-32t37-11ZM417,79q-30,0-59.5,10T308,121.5T288,182q0,35 16.5,57T347,274t56.5,19.5T461,304q40,5 61,10.5t29,13t8,20.5q0,12-6,21.5T533.5,385T497,391q-17,0-34-4.5T433,369t-18-40L303,359q5,33 23.5,58T372,457.5T433,481t70,8q51,0 85.5-14T644,436.5T675,379t10-72V226q0-17 0-32.5t0.5-31.5t0.5-33t0-39H590q-2,24-4.5,47.5T581,184H566q-8-36-30.5-59.5T481.5,90T417,79Z" />
      <glyph unicode="A" glyph-name="gid1" horiz-adv-x="698" d="M18,0L244,660H454L680,0H524L357,546H342L174,0H18ZM145,130v98H574V130H145Z" />
      <glyph unicode="B" glyph-name="gid10" horiz-adv-x="683" d="M73,0V660H347q61,0 109-10.5T538.5,618t53-54.5T610,484q0-39-16.5-68t-51-47T452,344V329q95-7 139.5-47.5T636,173q0-57-29.5-95.5T518,19.5T372,0H73ZM210,116H370q64,0 95,19.5T496,196q0,47-39,70.5T339,290H210V116Zm0,264H318q78,0 114.5,21.5T469,465t-33,61.5T335,546H210V380Z" />
      <glyph unicode="C" glyph-name="gid11" horiz-adv-x="680" d="M376-14Q299-14 238.5,7.5t-103,64T71,177T49,323q0,84 22.5,149t65,110.5T237,651t129,23q55,0 102-14.5T549,618t53.5-66T623,464L490,429q0,42-18.5,70t-48,42.5T361,556q-29,0-57.5-11.5t-52-38t-38-69.5T199,332q0-81 23.5-131T287,127.5T379,104q55,0 85.5,22.5t44,58T523,260l126-21q-1-53-16-99.5t-47-81T502,5T376-14Z" />
      <glyph unicode="D" glyph-name="gid13" horiz-adv-x="700" d="M142,0V117H334q56,0 93,24.5T483,213t19,115q0,56-12,96.5T454.5,491t-59,39T312,543H142V660H307q120,0 196-39T615,509.5T651,336q0-76-18-132t-48.5-95T514,46T429,11T338,0H142ZM73,0V660H217V0H73Z" />
      <glyph unicode="E" glyph-name="gid15" horiz-adv-x="621" d="M73,0V660H218V0H73ZM173,0V117H582V0H173Zm0,280V387H532V280H173Zm0,264V660H580V544H173Z" />
      <glyph unicode="F" glyph-name="gid20" horiz-adv-x="593" d="M73,0V660H217V0H73Zm69,247V365H527V247H142Zm0,290V660H564V537H142Z" />
      <glyph unicode="G" glyph-name="gid21" horiz-adv-x="721" d="M334-14q-81,0-145.5,37.5t-102,112T49,323q0,83 21.5,147.5t63,110T236,650t141,24q60,0 109-14t85-40t56.5-62.5T650,475L514,433q-2,42-21.5,69t-51,40.5T371,556q-54,0-92.5-24.5t-58.5-75T200,329q0-59 11.5-101.5T246,157t55-41.5T375,102q44,0 76.5,14.5t52,45T525,239H400V343H667V222V0H567l2,169H551q-16-60-43-100.5T438.5,7T334-14Z" />
      <glyph unicode="H" glyph-name="gid22" horiz-adv-x="723" d="M506,0V660H649V0H506ZM73,0V660H217V0H73Zm85,275V393H563V275H158Z" />
      <glyph unicode="I" glyph-name="gid23" horiz-adv-x="293" d="M73,0V660H220V0H73Z" />
      <glyph unicode="J" glyph-name="gid28" horiz-adv-x="373" d="M22-7L13,125q11-2 22-2.5T53,122q42,0 64.5,12T149,172t9,68V660H302V239q0-81-23.5-136.5T205.5,18T76-11q-9,0-21.5,1T22-7Z" />
      <glyph unicode="K" glyph-name="gid29" horiz-adv-x="687" d="M73,0V660H217V365q51,21 95.5,53.5T392,491t60,83t36,86H653q-14-49-42.5-97.5T543,471t-82.5-76.5T373,342V327q46,0 82.5-10.5t65-33T571,228t39-79L663,0H500L465,120q-14,49-37,78.5t-59,43T275,255H217V0H73Z" />
      <glyph unicode="L" glyph-name="gid30" horiz-adv-x="508" d="M73,0V660H217V0H73Zm30,0V121H496V0H103Z" />
      <glyph unicode="M" glyph-name="gid31" horiz-adv-x="939" d="M73,0V660H290L474,163h5L659,660H866V0H729l9,514H727L527,0H407L210,514H199L208,0H73Z" />
      <glyph unicode="N" glyph-name="gid32" horiz-adv-x="775" d="M73,0V660H261L560,193h11l-9,467H702V0H532L216,489H205L214,0H73Z" />
      <glyph unicode="O" glyph-name="gid34" horiz-adv-x="722" d="M359-14Q287-14 230,8.5t-97.5,66t-62,107T49,327q0,117 41,193.5t112.5,115T364,674q70,0 127-22.5t97.5-66t62.5-108T673,330q0-85-22-149T587.5,73.5T488,8T359-14Zm4,115q53,0 89,26t55,75t19,120q0,74-19.5,126T450,527.5T360,555q-52,0-88.5-26.5t-56-76.5T196,328q0-54 11.5-96.5T240,160t52-44t71-15Z" />
      <glyph unicode="P" glyph-name="gid42" horiz-adv-x="646" d="M174,186V299H325q72,0 108,29.5T469,426q0,60-33.5,91.5T332,549H174V660H336q64,0 115.5-15t88-44.5t55.5-74T614,422q0-77-35-129.5T475.5,213T305,186H174ZM73,0V660H217V0H73Z" />
      <glyph unicode="Q" glyph-name="gid44" horiz-adv-x="724" d="M672-152q-72-14-122.5-17.5t-90,0t-77,11t-81.5,15T198-132T54-132V-13q29-2 68.5-1.5t83.5,4T293-1t80,16t62,24V52Q356,29 294,30.5t-108.5,24t-76.5,63t-45,95T49,332q0,74 20,136t59.5,108T227,648t137,26q98,0 167-41T637.5,516T675,333q0-93-25.5-156.5T577.5,72T466.5,7T324-29V-43q54-5 97.5-9T505-56.5T585-52t87,17V-152ZM365,100q56,0 92.5,25T512,200t18,124q0,76-19,127.5T454,530t-94,27q-54,0-91-26t-55.5-77T195,328q0-76 19-126.5t57.5-76T365,100Z" />
      <glyph unicode="R" glyph-name="gid45" horiz-adv-x="679" d="M73,0V660H341q54,0 98-8.5T517,627t57.5-39.5t35.5-54T622,466q0-35-11-63.5T578,353t-55-34.5T446,300V285q51-5 81.5-23.5t48-49.5T606,135L646,0H487L456,125q-9,40-26,62.5t-43,32T324,229H217V0H73ZM217,337H331q68,0 105,26t37,81q0,54-34.5,79.5T335,549H217V337Z" />
      <glyph unicode="S" glyph-name="gid46" horiz-adv-x="652" d="M328-14Q263-14 211.5-1.5t-88,38t-57,64T43,189l126,41q2-45 22.5-75T250,111t85-14q45,0 76,11t47,29.5T474,178q0,26-20,42t-54.5,27T321,268q-49,11-96.5,25t-86,36t-61,57T55,474q0,61 30.5,105.5T175,649t142,25q84,0 143.5-24.5t92.5-69T589,475L459,439q0,31-10,54t-28,38.5T376.5,555T316,563q-39,0-67.5-10t-43-27T191,486q0-27 22.5-44.5t60-28.5T356,392q43-9 87.5-22.5t83-35t62-58T612,185q0-60-32-105T484.5,10.5T328-14Z" />
      <glyph unicode="T" glyph-name="gid47" horiz-adv-x="571" d="M213,0V660H357V0H213ZM18,539V660H552V539H18Z" />
      <glyph unicode="U" glyph-name="gid48" horiz-adv-x="728" d="M365-14Q304-14 256.5-1.5T174,34.5t-58.5,57T80.5,167T69,259V660H214V264q0-51 16.5-84.5T280,130t84-16q52,0 85.5,16t50,49.5T516,264V660H659V259q0-130-73.5-201.5T365-14Z" />
      <glyph unicode="V" glyph-name="gid53" horiz-adv-x="673" d="M236,0L18,660H175L331,122h13L501,660H656L437,0H236Z" />
      <glyph unicode="W" glyph-name="gid54" horiz-adv-x="986" d="M172,0L23,660H180l98-537h11L405,660H588L704,123h12l98,537H963L812,0H611L499,537h-9L378,0H172Z" />
      <glyph unicode="X" glyph-name="gid55" horiz-adv-x="697" d="M19,0L246,331L24,660H192L344,408h6L503,660H672L447,334L678,0H510L349,258h-5L187,0H19Z" />
      <glyph unicode="Y" glyph-name="gid56" horiz-adv-x="642" d="M249,0V206L6,660H178L319,336h6L465,660H635L394,207V0H249Z" />
      <glyph unicode="Z" glyph-name="gid58" horiz-adv-x="571" d="M33,0V136L367,527v12H44V660H525V512L201,132V121H538V0H33Z" />
      <glyph unicode="[" glyph-name="gid200" horiz-adv-x="324" d="M73-118V687H206V-118H73Zm0,0V-8H301V-118H73Zm0,709V701H301V591H73Z" />
      <glyph unicode="\" glyph-name="gid189" horiz-adv-x="357" d="M367-87H234L-14,712H119L367-87Z" />
      <glyph unicode="]" glyph-name="gid201" horiz-adv-x="319" d="M247-118H115V687H247V-118Zm0,0H19V-8H247V-118Zm0,709H19V701H247V591Z" />
      <glyph unicode="^" glyph-name="gid241" horiz-adv-x="572" d="M11,310L187,656H384L561,310H408L297,543H281L170,310H11Z" />
      <glyph unicode="_" glyph-name="gid195" horiz-adv-x="554" d="M0-154V-24H554V-154H0Z" />
      <glyph unicode="`" glyph-name="gid261" horiz-adv-x="283" d="M128,597L20,766H163l75-169H128Z" />
      <glyph unicode="a" glyph-name="gid59" horiz-adv-x="585" d="M189-14q-44,0-78,17.5T58,54T39,136q0,43 16.5,72T104,255t79,30t107,21q32,5 52.5,9.5t30.5,15T383,361q0,28-20,48t-63,20q-29,0-53.5-10t-42-30T179,338L52,377q12,41 34.5,71T141,498.5T214,529t89,10q77,0 125.5-24.5t72.5-76T525,306V216q0-35 1.5-71t4-72.5T536,0H409q-4,25-7.5,57.5T396,123H378q-14-38-40-69T274.5,4.5T189-14ZM250,90q19,0 38.5,7t38,19.5t34,31.5T386,191l-2,84l23-5q-18-13-42-20.5T315.5,238T265,229t-44.5-13t-31-21.5T178,157q0-31 20-49t52-18Z" />
      <glyph unicode="b" glyph-name="gid67" horiz-adv-x="638" d="M384-14q-50,0-87,19.5T237,62t-32,90H186L185,0H66V258V715H210V543q0-24-3-51.5T198.5,435T187,375h22q13,50 35.5,86.5t57.5,56T385,537q66,0 114-34t74.5-96T600,260q0-83-26-144.5T499.5,20T384-14ZM333,104q36,0 62,19.5T435,179t14,84t-13.5,83T397,401t-61,20q-24,0-44-9t-35-24.5t-26-35T215,312t-5-40V253q0-23 7-49.5t22.5-49T278,118t55-14Z" />
      <glyph unicode="c" glyph-name="gid68" horiz-adv-x="566" d="M309-14Q241-14 190,6T105,62T54,147.5T37,256q0,62 17.5,113.5T106,459t84,59t114,21t111.5-21t77-58.5T533,371L400,328q-3,31-16.5,53.5t-36,34T297,427q-29,0-50-11.5t-35.5-33t-22-52T182,262q0-54 14.5-91.5t43-57T310,94q40,0 64,15.5t35.5,40T424,200l126-28q-5-39-21.5-73T482,40T409.5,0.5T309-14Z" />
      <glyph unicode="d" glyph-name="gid70" horiz-adv-x="639" d="M257-14q-66,0-115.5,34T65,116T38,263q0,80 24,142t71,97t117,35q51,0 86-19t57.5-55.5T429,375h23q-7,32-12.5,62.5T431,496t-3,49V715H572V258V0H452V152H432q-11-56-34-93T339.5,4T257-14Zm48,118q33,0 56,14t38,36.5t22,49t7,49.5v19q0,19-5.5,39.5T407,352t-25,35.5T347,412t-44,9q-36,0-61-20t-39-55.5T189,263q0-48 14.5-84T244,123.5T305,104Z" />
      <glyph unicode="e" glyph-name="gid72" horiz-adv-x="581" d="M310-14Q245-14 194.5,4T109,56T55.5,140T37,253q0,62 17.5,114.5t51.5,91T189,518t111,21q60,0 107-19.5T485.5,461t46-95.5T542,236l-412-4v79l329,3l-51-40q7,53-7,87t-40.5,50T302,427q-38,0-67-20t-45-58.5T174,256q0-85 37.5-125T310,91q28,0 47.5,7.5t32,19.5t20,27T422,175l125-27q-9-37-26.5-66.5T474,30.5t-69.5-33T310-14Z" />
      <glyph unicode="f" glyph-name="gid77" horiz-adv-x="399" d="M106,0V336H23V442l140-6v19q-35,8-57.5,25.5T73,523T63,576q0,43 22,74.5t62,49T241,717q46,0 83.5-11.5T385,677l-9-130q-24,17-54,28t-57,11q-30,0-49.5-16T196,518q0-25 10.5-39.5t26-21T263,449H383V336H246V0H106Z" />
      <glyph unicode="g" glyph-name="gid78" horiz-adv-x="601" d="M274-183q-86,0-141.5,13.5T51-130T25-65q0,46 36.5,75T169,45V65q-54,0-83,11.5T57,117q0,28 28.5,50T180,202v20q-62,4-97,40T48,355q0,50 28,89.5t83.5,63T296,531H562V421L397,444V421q64-9 92.5-32T518,325t-27-72t-76.5-48.5T296,187q-13,0-28,1t-50,5q-19-14-29.5-24.5T178,149q0-7 7.5-12t20-7t25.5-2H381q20,0 52-2.5T497,110t54-41.5T573-13q0-58-32.5-96t-99-56T274-183ZM290-68q61,0 95,6.5t48.5,21T448-4q0,20-8.5,31t-22,15.5t-27,6T367,50H241q-42-4-60.5-22.5T162-15q0-22 14-33t42.5-15.5T290-68Zm-2,330q48,0 72,23.5T384,347q0,40-24.5,66T288,439q-46,0-72-25.5T190,348q0-25 11.5-44.5T235,273t53-11Z" />
      <glyph unicode="h" glyph-name="gid79" horiz-adv-x="631" d="M66,0V330V715H211V551q0-20-1.5-42t-5-44.5t-7-45.5T190,373h22q14,51 35.5,88T303,518.5T389,539q92,0 138-64.5T573,277V0H428V255q0,84-24.5,124.5T330,420q-40,0-66-24t-39-64.5T210,241V0H66Z" />
      <glyph unicode="i" glyph-name="gid80" horiz-adv-x="277" d="M66,0V525H210V0H66Zm73,604q-42,0-64.5,17.5T52,673q0,35 22.5,53T139,744q43,0 65.5-18T227,673q0-33-22.5-51T139,604Z" />
      <glyph unicode="j" glyph-name="gid87" horiz-adv-x="281" d="M23-202q-6,0-12.5,0.5T-3-199L-15-76q46,0 65.5,15T70-1V525H214V-5q0-52-12.5-89.5t-36.5-61t-59.5-35T23-202ZM142,604q-42,0-64.5,17.5T55,673q0,35 22.5,53T142,744q43,0 65.5-18T230,673q0-33-22.5-51T142,604Z" />
      <glyph unicode="k" glyph-name="gid89" horiz-adv-x="591" d="M66,0V715H208V318q31,21 59.5,45.5t52,51.5t42,55T393,525H558q-15-38-39.5-76.5t-58-71T383,322t-97-31V274q67,12 111-2t72.5-44.5t45.5-70T546,78L569,0H412L399,49q-14,49-31,86t-44.5,57.5T248,213H208V0H66Z" />
      <glyph unicode="l" glyph-name="gid90" horiz-adv-x="274" d="M66,0V715H208V0H66Z" />
      <glyph unicode="m" glyph-name="gid91" horiz-adv-x="946" d="M66,0V336V525H181V368h19q14,58 37,95.5T292.5,520T369,539q47,0 78-21t48-58.5T517,368h16q15,59 40.5,97t61,56T713,539t75.5-17T843,471.5t33-84T887,271V0H743V253q0,54-9,90.5T706,398t-49,18q-33,0-57-22.5T562,332t-15-89V0H406V249q0,56-10,92.5T367,397t-48,19q-34,0-58-22.5T224,331t-14-89V0H66Z" />
      <glyph unicode="n" glyph-name="gid92" horiz-adv-x="631" d="M66,0V318V525H184l-1-157h20q13,57 37,95t60.5,57T387,539q91,0 138.5-64T573,274V0H428V258q0,84-24.5,122.5T332,419q-40,0-67-25t-40.5-65.5T210,238V0H66Z" />
      <glyph unicode="o" glyph-name="gid94" horiz-adv-x="609" d="M304-14q-79,0-139,31.5t-94,93T37,264T71.5,417t95,91.5T304,539q79,0 139.5-31t95-92.5T573,262q0-93-35.5-154.5T441.5,16T304-14Zm5,107q39,0 65.5,18t40,54.5T428,254q0,55-14.5,93.5t-42.5,59T300,427q-37,0-64-17.5t-41-54T181,266q0-85 34-129t94-44Z" />
      <glyph unicode="p" glyph-name="gid102" horiz-adv-x="638" d="M66-168V258V525H185l1-146l18-1q9,53 31.5,89T294,521t83,18q70,0 120-34.5t76.5-97T600,260q0-79-24-140.5T504.5,22T386-14q-50,0-84.5,19t-57,53.5T207,141H188q6-27 11-55t8-54.5T210-20V-168H66ZM336,101q36,0 61,20t38.5,56T449,259q0,50-14,85.5T395,400t-62,20q-32,0-55-14t-38.5-37T217,319.5T210,269V250q0-19 5-39.5t16-40t26-35t35-25t44-9.5Z" />
      <glyph unicode="q" glyph-name="gid104" horiz-adv-x="639" d="M428-168V-21q0,25 3,51.5T439.5,85T451,141H431q-14-48-37-83T336,4.5T250-14q-70,0-117,36T62,119.5T38,259q0,86 26.5,148.5t76.5,97T260,539q48,0 84-18t59-53t31-89h20l-2,145H572V263V-168H428ZM303,101q24,0 43.5,9.5t34.5,25T406.5,170t16,40t5.5,40v19q0,24-7.5,51t-22,49.5t-37.5,37T305,421q-35,0-61-20t-40.5-56T189,259q0-46 14-81.5t39-56T303,101Z" />
      <glyph unicode="r" glyph-name="gid105" horiz-adv-x="434" d="M66,0V254V525H185l1-179h19q8,67 27.5,109T287,517t87,20q9,0 19.5-0.5T418,533l-6-153q-15,7-33,10t-32,3q-39,0-67-18t-45.5-51.5T211,242V0H66Z" />
      <glyph unicode="s" glyph-name="gid106" horiz-adv-x="544" d="M276-14q-53,0-96,10T106,25T56,70.5T31,130l110,45q4-22 22-41t48.5-30.5T285,92q46,0 71,13.5T381,144q0,19-14,30t-41,19t-65,15q-37,9-75.5,19t-71,28t-53,47.5T41,378q0,48 26,84t76,56.5T265,539q65,0 114-17.5t80.5-50T502,394L385,355q-4,24-19.5,42t-41,27T265,433q-43,0-66.5-14T175,382q0-19 15.5-31T234,331.5T300,316q40-8 78-18.5T446.5,270T495,225t18-72q0-52-28-89.5T404,6T276-14Z" />
      <glyph unicode="t" glyph-name="gid108" horiz-adv-x="397" d="M261-12q-88,0-129.5,46.5T90,183V412H14l2,113H69q31,0 46,9t18,33l13,75h82V525H361V408H228V189q0-36 17-52t52-16q19,0 36.5,4T364,138V4Q333-6 307-9t-46-3Z" />
      <glyph unicode="u" glyph-name="gid109" horiz-adv-x="622" d="M244-14q-92,0-138.5,62.5T59,239V525H203V257q0-77 23-114.5T296,105q28,0 49,14t36,39t22.5,59t8.5,73V525H556V214V0H440l-1,164H421q-15-62-37.5-101.5t-57-58T244-14Z" />
      <glyph unicode="v" glyph-name="gid114" horiz-adv-x="572" d="M186,0L11,524H170L281,114h16L408,524H561L385,0H186Z" />
      <glyph unicode="w" glyph-name="gid115" horiz-adv-x="863" d="M145,0L15,525H165l74-411h19l88,411H519l91-411h19l72,411H848L717,0H519L437,408H420L342,0H145Z" />
      <glyph unicode="x" glyph-name="gid116" horiz-adv-x="569" d="M14,0L188,263L14,525H180l96-198h17l96,198H554L380,263L556,0H391L293,199H276L180,0H14Z" />
      <glyph unicode="y" glyph-name="gid117" horiz-adv-x="602" d="M265-182q-40,0-81.5,7.5t-78,23T43-112L84,11q32-33 80-49.5T259-55q53,0 88.5,21.5t54,66T423,144l6,91H407q-10-66-32.5-108t-57-61.5T236,46q-57,0-96,29T81.5,162T62,305V525H206V340q0-93 21-134t64-41q23,0 42,12.5T365.5,214t21,58.5T394,351V525H538V139q0-63-11-114.5t-32.5-90T440-130t-76.5-39T265-182Z" />
      <glyph unicode="z" glyph-name="gid120" horiz-adv-x="524" d="M34,0V121L305,396v14H39V525H488V406L215,130V116H490V0H34Z" />
      <glyph unicode="{" glyph-name="gid198" horiz-adv-x="349" d="M22,236v96q22,4 40,19.5t29.5,46T107,477q5,66 16,109t29.5,68t45,35T260,699q13,0 30.5-2t36.5-5V583q-25,2-44.5-4t-31-29.5T239,475q-1-39-12.5-70T196,352t-42-35.5T108,299V276q23-5 46-18.5T195.5,222T226,169.5T239,99q1-51 12-75T282-5.5T327-10V-118q-19-3-37-5t-30-2q-35,0-61.5,10t-45,35t-30,68T107,97q-4,46-15,75T63,216T22,236Z" />
      <glyph unicode="|" glyph-name="gid224" horiz-adv-x="271" d="M73-160V660H197V-160H73Z" />
      <glyph unicode="}" glyph-name="gid199" horiz-adv-x="342" d="M320,236q-22-5-40.5-20T250,172T235,97q-5-66-16.5-109t-30-68t-45-35T82-125q-12,0-30,2t-37,5V-10q26-1 45.5,4.5T91,24t12,75q1,40 13,70.5T146.5,222T188,257.5T234,276v23q-22,4-45.5,17.5T146,352t-30.5,53T103,475q-1,51-12.5,74.5T59.5,579T15,583V692q19,3 36.5,5T82,699q36,0 62.5-10t45-35T219,586t16-109q4-49 15.5-79.5t29.5-46T320,332V236Z" />
      <glyph unicode="~" glyph-name="gid239" horiz-adv-x="528" d="M404,244q-29,0-63.5,6.5t-68,14.5t-61,14.5T168,286q-19,0-23-14t-1-38H52q-21,50-16.5,87.5t30,59T132,402q28,0 61.5-6t66-14T319,368t43-6q19,0 23.5,13.5T386,413h91q18-44 16-82.5T469,268t-65-24Z" />
      <glyph unicode="&#xa0;" glyph-name="gid171" horiz-adv-x="230" />
      <glyph unicode="&#xa1;" glyph-name="gid181" horiz-adv-x="291" d="M100,315h89l37-448H62l38,448Zm45,225q95,0 95-82q0-42-24-62.5T145,375T74.5,395.5T51,458t23.5,62T145,540Z" />
      <glyph unicode="&#xa2;" glyph-name="gid226" horiz-adv-x="566" d="M251,582L227,721H365L340,582H251ZM227-78L251,61h89L365-78H227ZM309,43q-68,0-119,19.5t-85,56T54,204T37,313q0,62 17.5,113.5T106,516t84,59t114,21t111.5-21t77-59T533,428L400,384q-3,32-16.5,54.5t-36,33.5T297,483q-29,0-50-11t-35.5-32.5t-22-52T182,318q0-54 14.5-91t43-57T310,150q40,0 64,16t35.5,40.5T424,257l126-28q-5-39-21.5-73T482,96.5T409.5,57T309,43Z" />
      <glyph unicode="&#xa3;" glyph-name="gid229" horiz-adv-x="718" d="M187-14Q106-14 62,23T18,121q0,40 17.5,68.5t47,44T148,249q43,0 70.5-19.5T264,180l15,6l1-46q-27,20-47.5,27T192,174q-26,0-42-12.5T134,126t15.5-39.5T196,70q27,0 45,12.5t27,38t9,62.5q0,47-12,79.5T234.5,320T198,368.5t-30,52T156,489q0,61 30,102.5T268.5,654T388,675q58,0 102-15t73-42.5T606,554t12-78L483,451q-1,28-11,53t-31,40.5T384,560q-41,0-62-22.5T301,479q0-27 9.5-51t24-48T363,329t23.5-59.5T396,197q0-36-10.5-73t-34-68t-64-50.5T187-14ZM95,294v83l174-4l2-64L95,294ZM518-15q-52,0-91,19.5t-62.5,45T332,92l-12,8l22,40q11-6 25-14t30.5-15.5T431,98t34-5q36,0 53.5,19.5t23,46.5t5.5,50q0,9-0.5,16.5T545,240t-2,12l142-3q3-15 5-32t2-32q0-35-9-70.5T653.5,50t-54-47T518-15ZM280,313l-3,67l231,17V314l-228-1Z" />
      <glyph unicode="&#xa5;" glyph-name="gid230" horiz-adv-x="629" d="M54,138v91H588V138H54Zm0,168v91H246V306H54Zm343,0v91H588V306H397ZM244,6V208L6,653H175L312,335h6L456,653H623L386,209V6H244Z" />
      <glyph unicode="&#xa6;" glyph-name="gid225" horiz-adv-x="271" d="M73-160V163H197V-160H73Zm0,530V660H197V370H73Z" />
      <glyph unicode="&#xa7;" glyph-name="gid217" horiz-adv-x="567" d="M289-173q-54,0-97.5,10T117-134T67.5-87T43-25L151,20q5-24 22.5-44t49-32T298-68q47,0 71,16T393-5q0,24-13.5,40T340,62T276,81q-46,9-86.5,19.5t-71.5,28t-48.5,46T52,246q0,33 13,60.5T108,353t82,28v11q-56,11-86,32T63,471.5T52,521q0,50 26,84.5t76,52T275,675q66,0 115-17t81-50.5T514,527L398,487q-5,28-21,46t-41.5,27.5T277,570q-45,0-68.5-15.5T185,510q0-25 17-41.5t46-27T314,423q48-10 86.5-20.5t67-27T511,332t15-70q0-28-10.5-53t-40-43.5T388,135V122q60-13 89-34t39-47t10-52q0-55-28-91t-81-53.5T289-173Zm11,357q29,0 50,7t32,21t11,34q0,24-12.5,39t-31,23t-39,11.5T274,323q-40,0-64.5-16T185,259q0-24 11.5-38.5T226,198t37.5-11t36.5-3Z" />
      <glyph unicode="&#xa8;" glyph-name="gid260" horiz-adv-x="387" d="M297,610q-32,0-51.5,14T226,672q0,33 19.5,47.5T297,734t51-14.5T367,672q0-35-19.5-48.5T297,610ZM91,610q-32,0-51.5,13.5T20,672q0,33 19,47.5T91,734q31,0 51-14.5T162,672q0-34-19.5-48T91,610Z" />
      <glyph unicode="&#xa9;" glyph-name="gid218" horiz-adv-x="959" d="M479-94Q374-94 292-68.5T153,7T66.5,132.5T37,307q0,100 29.5,175T153,607t139,75.5T479,708q103,0 185.5-25.5t140-75.5t88-125T923,307q0-99-30.5-174.5T804.5,7T665-68.5T479-94Zm0,117q107,0 179,30t107.5,93T801,307T765.5,468T658,561.5T479,592q-108,0-179-30.5t-106.5-93T158,307q0-98 35.5-161T300,53T479,23Zm12,71q-72,0-120.5,26T297,193T272,302q0,66 25,115.5t72.5,78T485,524q52,0 89.5-16.5t61-46T667,393L554,357q-3,35-25,53.5T478,429q-16,0-31-7.5t-26.5-22t-18-37T396,309q0-42 12-69.5t34-41T492,185q29,0 47,12t27,30.5T577,264l109-24q-4-33-18.5-60t-39-46.5t-59-29.5T491,94Z" />
      <glyph unicode="&#xaa;" glyph-name="gid121" horiz-adv-x="430" d="M135,267q-34,0-60,13T34,316.5T19,373q0,42 20.5,66t52,36T155,492t56,8q26,4 41.5,8T275,519.5t7,20.5q0,11-6,21t-19.5,16.5T221,584t-40-7.5T151,555t-18-33L30,552q9,31 27,53.5t43,37T155.5,664t67.5,7q65,0 100.5-19T374,604t18.5-58.5T396,495V436q0-24 1-50.5t3-53.5t5-54H302q-2,15-5,40.5T293,367H278q-16-44-52.5-72T135,267Zm51,83q19,0 38,8t35,22.5T284,416l-2,58l18-4q-17-10-38.5-15.5T217,446t-42-8t-31-15t-12-28q0-21 15.5-33T186,350Z" />
      <glyph unicode="&#xab;" glyph-name="gid208" horiz-adv-x="462" d="M76,87q-10,51-24.5,97T21,274q17,44 31,89t24,95H216q-13-50-31.5-95T146,274q20-44 38.5-90T216,87H76Zm219,0q-10,51-24.5,97T240,274q17,44 31,89t24,95H435q-13-50-31.5-95T365,274q20-44 38.5-90T435,87H295Z" />
      <glyph unicode="&#xac;" glyph-name="gid240" horiz-adv-x="528" d="M58,260V379H470V260H58ZM347,112V341H470V112H347Z" />
      <glyph unicode="&#xae;" glyph-name="gid219" horiz-adv-x="686" d="M341,150q-100,0-171,32T62,277T25,433T62,589t108,95t171,32q101,0 173-32t109.5-95T661,433T623.5,277T514,182T341,150Zm0,99q74,0 121.5,19.5t70.5,60T556,433T533,537.5t-70.5,60T341,617q-110,0-160.5-44T130,433t50.5-140T341,249ZM232,295V575H355q47,0 78.5-20.5T465,490q0-27-18.5-45.5T387,422V412q39-2 53-20.5T462,347l17-52H398l-11,48q-6,23-15.5,34T336,388H306V295H232Zm74,148h32q14,0 25.5,2.5t19,10T390,478q0,20-7,28t-16.5,10.5T349,519H306V443Z" />
      <glyph unicode="&#xaf;" glyph-name="gid266" horiz-adv-x="338" d="M20,621V723H318V621H20Z" />
      <glyph unicode="&#xb0;" glyph-name="gid221" horiz-adv-x="360" d="M178,380q-45,0-79.5,16t-54,48.5T25,527q0,41 13,69t35.5,44.5t50,23.5t57.5,7q46,0 80.5-15t54-47.5T335,527q0-55-22-87.5t-58-46T178,380Zm3,86q27,0 42,16.5T238,527q0,27-15.5,43T179,586q-26,0-42-16t-16-43q0-28 16.5-44.5T181,466Z" />
      <glyph unicode="&#xb1;" glyph-name="gid238" horiz-adv-x="528" d="M206,281V636H322V281H206ZM58,404V514H470V404H58ZM58,91V210H470V91H58Z" />
      <glyph unicode="&#xb2;" glyph-name="gid168" horiz-adv-x="431" d="M40,270V385l175,98q13,7 24.5,16T258,519.5t7,25.5q0,20-14,31.5T212,588q-26,0-38.5-11T158,551.5T155,525L38,540q-1,71 48.5,110T217,689q49,0 87-14.5t60-44T386,555q0-29-9.5-52T351,461.5T313,428t-47-28l-80-41v-8l202,21V270H40Z" />
      <glyph unicode="&#xb3;" glyph-name="gid169" horiz-adv-x="420" d="M201,261q-89,0-130.5,31.5T21,381l109,21q1-17 10.5-28.5t25-16.5t36.5-5q31,0 47,13t16,34q0,22-16.5,37T199,458t-83,2v56l118,62v7L45,581v97H359V572L229,510V499q80,8 118.5-20.5T386,392q0-60-45.5-95.5T201,261Z" />
      <glyph unicode="&#xb4;" glyph-name="gid262" horiz-adv-x="283" d="M130,597H20L95,766H238L130,597Z" />
      <glyph unicode="&#xb5;" glyph-name="gid242" horiz-adv-x="639" d="M59-168V525H203V277q0-22 1.5-50.5t10-54.5t28-42.5T298,113q32,0 55.5,13t40,37T419,219t10,70V525H572V214L573,0H456V162H437q-6-51-24.5-90.5T363.5,9T292-14q-27,0-46,11T214.5,27T194,69H176l24-185v-52H59Z" />
      <glyph unicode="&#xb6;" glyph-name="gid216" horiz-adv-x="698" d="M351-161V194H328q-95,0-161,26.5T66.5,299T32,428q0,61 20,104t55.5,72t84,42.5T296,660H462V-161H351Zm45,0v89H585v-89H396Zm118,0V660H625V-161H514ZM372,571v89H610V571H372Z" />
      <glyph unicode="&#xb7;" glyph-name="gid184" horiz-adv-x="233" d="M116,258q-47,0-70.5,20T22,340q0,43 23.5,63T116,423q48,0 71.5-20T211,340q0-82-95-82Z" />
      <glyph unicode="&#xb8;" glyph-name="gid267" horiz-adv-x="299" d="M20-220l20,73q15-3 39.5-6t49.5-2t42,9t17,27q0,6-2.5,12.5t-13,12T137-86T66-85L77,7h75l-6-56q47,1 76.5-7.5t43-26T279-126q0-43-27-66.5T184-225t-85.5-7T20-220Z" />
      <glyph unicode="&#xb9;" glyph-name="gid167" horiz-adv-x="260" d="M90,270V515H32V621q30,0 47,11.5T100,677H211V270H90Z" />
      <glyph unicode="&#xba;" glyph-name="gid122" horiz-adv-x="423" d="M211,271q-85,0-139,48.5T18,471q0,69 24.5,113.5t68,66T211,672q87,0 140.5-48.5T405,472q0-70-25-114.5T311,292T211,271Zm3,86q21,0 35.5,9t23,32.5T281,463q0,44-9,69.5t-25.5,36T208,579q-19,0-34.5-9.5t-24-32T141,473q0-44 9.5-69.5t26-36T214,357Z" />
      <glyph unicode="&#xbb;" glyph-name="gid209" horiz-adv-x="462" d="M386,87H246q14,51 32.5,97T316,274q-19,44-37.5,89T246,458H386q10-50 24.5-95T441,274q-16-44-30.5-90T386,87ZM167,87H27q14,51 32,97t38,90q-20,44-38,89T27,458H167q10-50 24.5-95T222,274q-16-44-30.5-90T167,87Z" />
      <glyph unicode="&#xbc;" glyph-name="gid165" horiz-adv-x="939" d="M90,300V545H32V651q30,0 47,11.5T100,707H211V300H90ZM127,0L520,660H660L267,0H127ZM508,29V139q44,57 68,96.5t36,71T632,368H843V-40H725V301h-9q-17-44-42-88t-55-83V120H904V29H508Z" />
      <glyph unicode="&#xbd;" glyph-name="gid164" horiz-adv-x="940" d="M90,300V545H32V651q30,0 47,11.5T100,707H211V300H90ZM127,0L520,660H660L267,0H127ZM549-40V75l175,98q13,7 24.5,16T767,209.5t7,25.5q0,20-14,31.5T721,278q-26,0-38.5-11T667,241.5T664,215L547,230q-1,71 48.5,110T726,379q49,0 87-14.5t60-44T895,245q0-29-9.5-52T860,151.5T822,118T775,90L695,49V41L897,62V-40H549Z" />
      <glyph unicode="&#xbe;" glyph-name="gid166" horiz-adv-x="1084" d="M201,291q-89,0-130.5,31.5T21,411l109,21q1-17 10.5-28.5t25-16.5t36.5-5q31,0 47,13t16,34q0,22-16.5,37T199,488t-83,2v56l118,62v7L45,611v97H359V602L229,540V529q80,8 118.5-20.5T386,422q0-60-45.5-95.5T201,291ZM273,0L666,660H806L413,0H273ZM653,29V139q44,57 68,96.5t36,71T777,368H988V-40H870V301h-9q-17-44-42-88t-55-83V120h285V29H653Z" />
      <glyph unicode="&#xbf;" glyph-name="gid183" horiz-adv-x="418" d="M315,313q4-45-5.5-75.5t-28-50.5T242,152.5T201,124T168.5,91.5T156,46q0-39 24.5-56.5T241-28q24,0 49,6T341-5.5T389,20l8-122q-26-16-55-26.5T283.5-144T225-149q-42,0-80,11T78-105T32.5-49.5T16,29q0,42 14,70t35.5,48t45,36.5t45,33.5t34,40T200,313H315ZM251,538q47,0 70-20t23-62t-23-62.5T251,373t-71,20.5T156,456q0,82 95,82Z" />
      <glyph unicode="&#xc0;" glyph-name="gid6" horiz-adv-x="698" d="M18,0L244,660H454L680,0H524L357,546H342L174,0H18ZM145,130v98H574V130H145ZM307,732L198,901H342l74-169H307Z" />
      <glyph unicode="&#xc1;" glyph-name="gid2" horiz-adv-x="698" d="M18,0L244,660H454L680,0H524L357,546H342L174,0H18ZM145,130v98H574V130H145ZM396,732H286l75,169H504L396,732Z" />
      <glyph unicode="&#xc2;" glyph-name="gid4" horiz-adv-x="698" d="M18,0L244,660H454L680,0H524L357,546H342L174,0H18ZM145,130v98H574V130H145Zm42,581V818l164,93l164-93V711L351,804L187,711Z" />
      <glyph unicode="&#xc3;" glyph-name="gid8" horiz-adv-x="698" d="M18,0L244,660H454L680,0H524L357,546H342L174,0H18ZM145,130v98H574V130H145ZM451,727q-22,0-46,8t-47.5,18.5t-43.5,19T281,781q-17,0-21-14.5T259,734H193q-17,35-13,67t24,51.5T256,872q21,0 44.5-8T347,846t42.5-18t31.5-8q18,0 21.5,15.5T443,867h66q14-34 12-66.5t-19-53T451,727Z" />
      <glyph unicode="&#xc4;" glyph-name="gid5" horiz-adv-x="698" d="M18,0L244,660H454L680,0H524L357,546H342L174,0H18ZM145,130v98H574V130H145ZM452,746q-32,0-51.5,14T381,808q0,33 19.5,47.5T452,870t51-14.5T522,808q0-35-19.5-48.5T452,746Zm-206,0q-32,0-51.5,13.5T175,808q0,33 19,47.5T246,870q31,0 51-14.5T317,808q0-34-19.5-48T246,746Z" />
      <glyph unicode="&#xc5;" glyph-name="gid7" horiz-adv-x="698" d="M18,0L244,660H454L680,0H524L357,546H342L174,0H18ZM145,130v98H574V130H145ZM351,724q-40,0-67.5,22T256,813q0,43 27.5,65T350,900q40,0 67-22.5T444,812q0-45-27-66.5T351,724Zm0,53q16,0 24,9t8,25q0,18-8,27t-24,9q-17,0-25-9t-8-25q0-17 8.5-26.5T351,777Z" />
      <glyph unicode="&#xc6;" glyph-name="gid9" horiz-adv-x="954" d="M18,0L312,660H548L450,546H411L175,0H18ZM149,130v97H506V130H149ZM549,0V117H915V0H549ZM449,0V660H592V0H449ZM549,279V386H865V279H549Zm0,265V660H913V544H549Z" />
      <glyph unicode="&#xc7;" glyph-name="gid12" horiz-adv-x="680" d="M376-14Q299-14 238.5,7.5t-103,64T71,177T49,323q0,84 22.5,149t65,110.5T237,651t129,23q55,0 102-14.5T549,618t53.5-66T623,464L490,429q0,42-18.5,70t-48,42.5T361,556q-29,0-57.5-11.5t-52-38t-38-69.5T199,332q0-81 23.5-131T287,127.5T379,104q55,0 85.5,22.5t44,58T523,260l126-21q-1-53-16-99.5t-47-81T502,5T376-14ZM225-220l20,73q15-3 39.5-6t49.5-2t42,9t17,27q0,6-2.5,12.5t-13,12T342-86t-71,1L282,7h75l-6-56q47,1 76.5-7.5t43-26T484-126q0-43-27-66.5T389-225t-85.5-7T225-220Z" />
      <glyph unicode="&#xc8;" glyph-name="gid19" horiz-adv-x="621" d="M73,0V660H218V0H73ZM173,0V117H582V0H173Zm0,280V387H532V280H173Zm0,264V660H580V544H173Zm94,188L159,901H302l75-169H267Z" />
      <glyph unicode="&#xc9;" glyph-name="gid16" horiz-adv-x="621" d="M73,0V660H218V0H73ZM173,0V117H582V0H173Zm0,280V387H532V280H173Zm0,264V660H580V544H173ZM356,732H246l75,169H464L356,732Z" />
      <glyph unicode="&#xca;" glyph-name="gid17" horiz-adv-x="621" d="M73,0V660H218V0H73ZM173,0V117H582V0H173Zm0,280V387H532V280H173Zm0,264V660H580V544H173ZM147,711V818l164,93l164-93V711L311,804L147,711Z" />
      <glyph unicode="&#xcb;" glyph-name="gid18" horiz-adv-x="621" d="M73,0V660H218V0H73ZM173,0V117H582V0H173Zm0,280V387H532V280H173Zm0,264V660H580V544H173ZM412,746q-32,0-51.5,14T341,808q0,33 19.5,47.5T412,870t51-14.5T482,808q0-35-19.5-48.5T412,746Zm-206,0q-32,0-51.5,13.5T135,808q0,33 19,47.5T206,870q31,0 51-14.5T277,808q0-34-19.5-48T206,746Z" />
      <glyph unicode="&#xcc;" glyph-name="gid27" horiz-adv-x="293" d="M73,0V660H220V0H73Zm29,732L-6,901H137l75-169H102Z" />
      <glyph unicode="&#xcd;" glyph-name="gid24" horiz-adv-x="293" d="M73,0V660H220V0H73ZM191,732H81l75,169H299L191,732Z" />
      <glyph unicode="&#xce;" glyph-name="gid25" horiz-adv-x="293" d="M73,0V660H220V0H73ZM7,711V823l140,82l140-82V711L147,794L7,711Z" />
      <glyph unicode="&#xcf;" glyph-name="gid26" horiz-adv-x="293" d="M73,0V660H220V0H73ZM231,745q-31,0-48,15.5T166,806q0,31 17,46.5T231,868q30,0 46.5-15.5T294,806q0-30-16.5-45.5T231,745ZM59,745q-31,0-48,15.5T-6,806q0,31 17,46.5T59,868t48.5-15.5T125,806q0-30-17.5-45.5T59,745Z" />
      <glyph unicode="&#xd0;" glyph-name="gid14" horiz-adv-x="747" d="M44,402H351V296H44V402ZM189,0V117H381q56,0 93,24.5T530,213t19,115q0,56-12,96.5T501.5,491t-59,39T359,543H189V660H354q120,0 196-39T662,509.5T698,336q0-76-18-132t-48.5-95T561,46T476,11T385,0H189ZM120,0V660H264V0H120Z" />
      <glyph unicode="&#xd1;" glyph-name="gid33" horiz-adv-x="775" d="M73,0V660H261L560,193h11l-9,467H702V0H532L216,489H205L214,0H73ZM489,727q-22,0-46,8t-47.5,18.5t-43.5,19T319,781q-17,0-21-14.5T297,734H231q-17,35-13,67t24,51.5T294,872q21,0 44.5-8T385,846t42.5-18t31.5-8q18,0 21.5,15.5T481,867h66q14-34 12-66.5t-19-53T489,727Z" />
      <glyph unicode="&#xd2;" glyph-name="gid38" horiz-adv-x="722" d="M359-14Q287-14 230,8.5t-97.5,66t-62,107T49,327q0,117 41,193.5t112.5,115T364,674q70,0 127-22.5t97.5-66t62.5-108T673,330q0-85-22-149T587.5,73.5T488,8T359-14Zm4,115q53,0 89,26t55,75t19,120q0,74-19.5,126T450,527.5T360,555q-52,0-88.5-26.5t-56-76.5T196,328q0-54 11.5-96.5T240,160t52-44t71-15ZM317,732L209,901H352l75-169H317Z" />
      <glyph unicode="&#xd3;" glyph-name="gid35" horiz-adv-x="722" d="M359-14Q287-14 230,8.5t-97.5,66t-62,107T49,327q0,117 41,193.5t112.5,115T364,674q70,0 127-22.5t97.5-66t62.5-108T673,330q0-85-22-149T587.5,73.5T488,8T359-14Zm4,115q53,0 89,26t55,75t19,120q0,74-19.5,126T450,527.5T360,555q-52,0-88.5-26.5t-56-76.5T196,328q0-54 11.5-96.5T240,160t52-44t71-15Zm44,631H297l75,169H515L407,732Z" />
      <glyph unicode="&#xd4;" glyph-name="gid36" horiz-adv-x="722" d="M359-14Q287-14 230,8.5t-97.5,66t-62,107T49,327q0,117 41,193.5t112.5,115T364,674q70,0 127-22.5t97.5-66t62.5-108T673,330q0-85-22-149T587.5,73.5T488,8T359-14Zm4,115q53,0 89,26t55,75t19,120q0,74-19.5,126T450,527.5T360,555q-52,0-88.5-26.5t-56-76.5T196,328q0-54 11.5-96.5T240,160t52-44t71-15ZM197,711V818l164,93l164-93V711L361,804L197,711Z" />
      <glyph unicode="&#xd5;" glyph-name="gid40" horiz-adv-x="722" d="M359-14Q287-14 230,8.5t-97.5,66t-62,107T49,327q0,117 41,193.5t112.5,115T364,674q70,0 127-22.5t97.5-66t62.5-108T673,330q0-85-22-149T587.5,73.5T488,8T359-14Zm4,115q53,0 89,26t55,75t19,120q0,74-19.5,126T450,527.5T360,555q-52,0-88.5-26.5t-56-76.5T196,328q0-54 11.5-96.5T240,160t52-44t71-15Zm99,626q-22,0-46,8t-47.5,18.5t-43.5,19T292,781q-17,0-21-14.5T270,734H204q-17,35-13,67t24,51.5T267,872q21,0 44.5-8T358,846t42.5-18t31.5-8q18,0 21.5,15.5T454,867h66q14-34 12-66.5t-19-53T462,727Z" />
      <glyph unicode="&#xd6;" glyph-name="gid37" horiz-adv-x="722" d="M359-14Q287-14 230,8.5t-97.5,66t-62,107T49,327q0,117 41,193.5t112.5,115T364,674q70,0 127-22.5t97.5-66t62.5-108T673,330q0-85-22-149T587.5,73.5T488,8T359-14Zm4,115q53,0 89,26t55,75t19,120q0,74-19.5,126T450,527.5T360,555q-52,0-88.5-26.5t-56-76.5T196,328q0-54 11.5-96.5T240,160t52-44t71-15ZM463,746q-32,0-51.5,14T392,808q0,33 19.5,47.5T463,870t51-14.5T533,808q0-35-19.5-48.5T463,746Zm-206,0q-32,0-51.5,13.5T186,808q0,33 19,47.5T257,870q31,0 51-14.5T328,808q0-34-19.5-48T257,746Z" />
      <glyph unicode="&#xd7;" glyph-name="gid233" horiz-adv-x="528" d="M139,119L58,201L389,533l81-82L139,119Zm251,0L58,451l80,83L470,203l-80-84Z" />
      <glyph unicode="&#xd8;" glyph-name="gid39" horiz-adv-x="731" d="M49-16L554,677H665L160-16H49Zm319,5q-72,0-129,22.5t-97.5,66t-62,107T58,330q0,117 41,193.5t112.5,115T373,677q70,0 127-22.5t97.5-66t62.5-108T682,333q0-85-22-149T596.5,76.5T497,11T368-11Zm4,115q53,0 89,26t55,75t19,120q0,74-19.5,126T459,530.5T369,558q-51,0-88-26.5T224.5,455T205,331q0-54 11.5-96.5T249,163t52-44t71-15Z" />
      <glyph unicode="&#xd9;" glyph-name="gid52" horiz-adv-x="728" d="M365-14Q304-14 256.5-1.5T174,34.5t-58.5,57T80.5,167T69,259V660H214V264q0-51 16.5-84.5T280,130t84-16q52,0 85.5,16t50,49.5T516,264V660H659V259q0-130-73.5-201.5T365-14ZM321,732L212,901H356l74-169H321Z" />
      <glyph unicode="&#xda;" glyph-name="gid49" horiz-adv-x="728" d="M365-14Q304-14 256.5-1.5T174,34.5t-58.5,57T80.5,167T69,259V660H214V264q0-51 16.5-84.5T280,130t84-16q52,0 85.5,16t50,49.5T516,264V660H659V259q0-130-73.5-201.5T365-14Zm45,746H300l75,169H518L410,732Z" />
      <glyph unicode="&#xdb;" glyph-name="gid50" horiz-adv-x="728" d="M365-14Q304-14 256.5-1.5T174,34.5t-58.5,57T80.5,167T69,259V660H214V264q0-51 16.5-84.5T280,130t84-16q52,0 85.5,16t50,49.5T516,264V660H659V259q0-130-73.5-201.5T365-14ZM201,711V818l164,93l164-93V711L365,804L201,711Z" />
      <glyph unicode="&#xdc;" glyph-name="gid51" horiz-adv-x="728" d="M365-14Q304-14 256.5-1.5T174,34.5t-58.5,57T80.5,167T69,259V660H214V264q0-51 16.5-84.5T280,130t84-16q52,0 85.5,16t50,49.5T516,264V660H659V259q0-130-73.5-201.5T365-14ZM466,746q-32,0-51.5,14T395,808q0,33 19.5,47.5T466,870t51-14.5T536,808q0-35-19.5-48.5T466,746Zm-206,0q-32,0-51.5,13.5T189,808q0,33 19,47.5T260,870q31,0 51-14.5T331,808q0-34-19.5-48T260,746Z" />
      <glyph unicode="&#xdd;" glyph-name="gid57" horiz-adv-x="642" d="M249,0V206L6,660H178L319,336h6L465,660H635L394,207V0H249ZM367,732H257l75,169H475L367,732Z" />
      <glyph unicode="&#xde;" glyph-name="gid43" horiz-adv-x="647" d="M174,98V209H311q16,0 37,1.5t42,7.5t39,20t29.5,39T470,342q0,38-11,62.5t-28.5,38T394,462t-36.5,7T329,470H174V581H337q61,0 112-15.5T537,519t57-76t20-105q0-80-35.5-133.5t-105-80T303,98H174ZM73,0V660H217V0H73Z" />
      <glyph unicode="&#xdf;" glyph-name="gid107" horiz-adv-x="682" d="M416-14q-39,0-68,8.5t-51,25T257,60l86,84q11-14 21.5-22.5t22.5-13t26-4.5q16,0 31,5t27,15t19,25t7,35q0,34-15,53.5t-42,29T378.5,279T306,282v92q54,0 88,9t50.5,29.5T461,465q0,35-17.5,53.5T398,544t-58,7q-39,0-64.5-9t-39-23.5t-20-32t-7.5-35T208,420V0H66V406q0,45 10,85.5t31,73t54.5,56t80,36.5T349,670q75,0 131.5-21t89-61.5T602,484q0-38-14-67.5T542.5,368T460,341V326q62-5 100.5-25.5t56.5-54T635,167q0-55-26-96T534,8T416-14Z" />
      <glyph unicode="&#xe0;" glyph-name="gid63" horiz-adv-x="585" d="M189-14q-44,0-78,17.5T58,54T39,136q0,43 16.5,72T104,255t79,30t107,21q32,5 52.5,9.5t30.5,15T383,361q0,28-20,48t-63,20q-29,0-53.5-10t-42-30T179,338L52,377q12,41 34.5,71T141,498.5T214,529t89,10q77,0 125.5-24.5t72.5-76T525,306V216q0-35 1.5-71t4-72.5T536,0H409q-4,25-7.5,57.5T396,123H378q-14-38-40-69T274.5,4.5T189-14ZM250,90q19,0 38.5,7t38,19.5t34,31.5T386,191l-2,84l23-5q-18-13-42-20.5T315.5,238T265,229t-44.5-13t-31-21.5T178,157q0-31 20-49t52-18Zm4,506L146,765H289l75-169H254Z" />
      <glyph unicode="&#xe1;" glyph-name="gid60" horiz-adv-x="585" d="M189-14q-44,0-78,17.5T58,54T39,136q0,43 16.5,72T104,255t79,30t107,21q32,5 52.5,9.5t30.5,15T383,361q0,28-20,48t-63,20q-29,0-53.5-10t-42-30T179,338L52,377q12,41 34.5,71T141,498.5T214,529t89,10q77,0 125.5-24.5t72.5-76T525,306V216q0-35 1.5-71t4-72.5T536,0H409q-4,25-7.5,57.5T396,123H378q-14-38-40-69T274.5,4.5T189-14ZM250,90q19,0 38.5,7t38,19.5t34,31.5T386,191l-2,84l23-5q-18-13-42-20.5T315.5,238T265,229t-44.5-13t-31-21.5T178,157q0-31 20-49t52-18Zm93,505H233l75,169H451L343,595Z" />
      <glyph unicode="&#xe2;" glyph-name="gid61" horiz-adv-x="585" d="M189-14q-44,0-78,17.5T58,54T39,136q0,43 16.5,72T104,255t79,30t107,21q32,5 52.5,9.5t30.5,15T383,361q0,28-20,48t-63,20q-29,0-53.5-10t-42-30T179,338L52,377q12,41 34.5,71T141,498.5T214,529t89,10q77,0 125.5-24.5t72.5-76T525,306V216q0-35 1.5-71t4-72.5T536,0H409q-4,25-7.5,57.5T396,123H378q-14-38-40-69T274.5,4.5T189-14ZM250,90q19,0 38.5,7t38,19.5t34,31.5T386,191l-2,84l23-5q-18-13-42-20.5T315.5,238T265,229t-44.5-13t-31-21.5T178,157q0-31 20-49t52-18ZM134,575V682l164,93l164-93V575L298,668L134,575Z" />
      <glyph unicode="&#xe3;" glyph-name="gid65" horiz-adv-x="585" d="M189-14q-44,0-78,17.5T58,54T39,136q0,43 16.5,72T104,255t79,30t107,21q32,5 52.5,9.5t30.5,15T383,361q0,28-20,48t-63,20q-29,0-53.5-10t-42-30T179,338L52,377q12,41 34.5,71T141,498.5T214,529t89,10q77,0 125.5-24.5t72.5-76T525,306V216q0-35 1.5-71t4-72.5T536,0H409q-4,25-7.5,57.5T396,123H378q-14-38-40-69T274.5,4.5T189-14ZM250,90q19,0 38.5,7t38,19.5t34,31.5T386,191l-2,84l23-5q-18-13-42-20.5T315.5,238T265,229t-44.5-13t-31-21.5T178,157q0-31 20-49t52-18ZM399,590q-22,0-46,8t-47.5,18.5t-43.5,19T229,644q-17,0-21-14.5T207,597H141q-17,35-13,67t24,51.5T204,735q21,0 44.5-8T295,709t42.5-18t31.5-8q18,0 21.5,15.5T391,730h66q14-34 12-66.5t-19-53T399,590Z" />
      <glyph unicode="&#xe4;" glyph-name="gid62" horiz-adv-x="585" d="M189-14q-44,0-78,17.5T58,54T39,136q0,43 16.5,72T104,255t79,30t107,21q32,5 52.5,9.5t30.5,15T383,361q0,28-20,48t-63,20q-29,0-53.5-10t-42-30T179,338L52,377q12,41 34.5,71T141,498.5T214,529t89,10q77,0 125.5-24.5t72.5-76T525,306V216q0-35 1.5-71t4-72.5T536,0H409q-4,25-7.5,57.5T396,123H378q-14-38-40-69T274.5,4.5T189-14ZM250,90q19,0 38.5,7t38,19.5t34,31.5T386,191l-2,84l23-5q-18-13-42-20.5T315.5,238T265,229t-44.5-13t-31-21.5T178,157q0-31 20-49t52-18ZM400,609q-32,0-51.5,14T329,671q0,33 19.5,47.5T400,733t51-14.5T470,671q0-35-19.5-48.5T400,609Zm-206,0q-32,0-51.5,13.5T123,671q0,33 19,47.5T194,733q31,0 51-14.5T265,671q0-34-19.5-48T194,609Z" />
      <glyph unicode="&#xe5;" glyph-name="gid64" horiz-adv-x="585" d="M189-14q-44,0-78,17.5T58,54T39,136q0,43 16.5,72T104,255t79,30t107,21q32,5 52.5,9.5t30.5,15T383,361q0,28-20,48t-63,20q-29,0-53.5-10t-42-30T179,338L52,377q12,41 34.5,71T141,498.5T214,529t89,10q77,0 125.5-24.5t72.5-76T525,306V216q0-35 1.5-71t4-72.5T536,0H409q-4,25-7.5,57.5T396,123H378q-14-38-40-69T274.5,4.5T189-14ZM250,90q19,0 38.5,7t38,19.5t34,31.5T386,191l-2,84l23-5q-18-13-42-20.5T315.5,238T265,229t-44.5-13t-31-21.5T178,157q0-31 20-49t52-18Zm49,497q-40,0-67.5,22T204,676q0,43 27.5,65T298,763q40,0 67-22.5T392,675q0-45-27-66.5T299,587Zm0,53q16,0 24,9t8,25q0,18-8,27t-24,9q-17,0-25-9t-8-25q0-17 8.5-26.5T299,640Z" />
      <glyph unicode="&#xe6;" glyph-name="gid66" horiz-adv-x="927" d="M193-14q-48,0-82.5,17.5T57.5,54T39,132q0,55 24,87t62,49t80.5,25T283,307q30,4 46.5,9.5t24.5,16t8,29.5t-6.5,34t-21,24T294,429t-49.5-10T204,389t-25-50L52,378q15,53 47,89.5t77.5,55T275,541q44,0 77.5-11t56-32.5t34-55T454,364h15q2,47 19.5,81t45,55.5t61,31.5T663,542q53,0 96.5-20.5t74-60t45-96T887,236l-400-3v78l338,3l-72-65q14,60 1,100t-41,60t-61,20q-34,0-61.5-20t-43-59T532,255q0-57 16.5-94T594,106.5T660,89q25,0 43,7t30.5,18.5t21,27.5T767,175l125-29q-7-37-25.5-66.5T819,28.5T751.5-4T666-15Q609-15 562,2.5t-79.5,54T435,147H420q-15-40-38.5-70t-54-50.5T263-4T193-14ZM250,89q19,0 38,6.5T324,114t32,27.5T381,175l-2,148l39-38q-24-21-55-31.5t-64-16t-60-13t-44.5-22T177,158q0-33 21-51t52-18Z" />
      <glyph unicode="&#xe7;" glyph-name="gid69" horiz-adv-x="566" d="M309-14Q241-14 190,6T105,62T54,147.5T37,256q0,62 17.5,113.5T106,459t84,59t114,21t111.5-21t77-58.5T533,371L400,328q-3,31-16.5,53.5t-36,34T297,427q-29,0-50-11.5t-35.5-33t-22-52T182,262q0-54 14.5-91.5t43-57T310,94q40,0 64,15.5t35.5,40T424,200l126-28q-5-39-21.5-73T482,40T409.5,0.5T309-14ZM174-220l20,73q15-3 39.5-6t49.5-2t42,9t17,27q0,6-2.5,12.5t-13,12T291-86t-71,1L231,7h75l-6-56q47,1 76.5-7.5t43-26T433-126q0-43-27-66.5T338-225t-85.5-7T174-220Z" />
      <glyph unicode="&#xe8;" glyph-name="gid76" horiz-adv-x="581" d="M310-14Q245-14 194.5,4T109,56T55.5,140T37,253q0,62 17.5,114.5t51.5,91T189,518t111,21q60,0 107-19.5T485.5,461t46-95.5T542,236l-412-4v79l329,3l-51-40q7,53-7,87t-40.5,50T302,427q-38,0-67-20t-45-58.5T174,256q0-85 37.5-125T310,91q28,0 47.5,7.5t32,19.5t20,27T422,175l125-27q-9-37-26.5-66.5T474,30.5t-69.5-33T310-14ZM251,597L143,766H286l74-169H251Z" />
      <glyph unicode="&#xe9;" glyph-name="gid73" horiz-adv-x="581" d="M310-14Q245-14 194.5,4T109,56T55.5,140T37,253q0,62 17.5,114.5t51.5,91T189,518t111,21q60,0 107-19.5T485.5,461t46-95.5T542,236l-412-4v79l329,3l-51-40q7,53-7,87t-40.5,50T302,427q-38,0-67-20t-45-58.5T174,256q0-85 37.5-125T310,91q28,0 47.5,7.5t32,19.5t20,27T422,175l125-27q-9-37-26.5-66.5T474,30.5t-69.5-33T310-14Zm30,611H230l75,169H448L340,597Z" />
      <glyph unicode="&#xea;" glyph-name="gid74" horiz-adv-x="581" d="M310-14Q245-14 194.5,4T109,56T55.5,140T37,253q0,62 17.5,114.5t51.5,91T189,518t111,21q60,0 107-19.5T485.5,461t46-95.5T542,236l-412-4v79l329,3l-51-40q7,53-7,87t-40.5,50T302,427q-38,0-67-20t-45-58.5T174,256q0-85 37.5-125T310,91q28,0 47.5,7.5t32,19.5t20,27T422,175l125-27q-9-37-26.5-66.5T474,30.5t-69.5-33T310-14ZM131,577V684l164,93l164-93V577L295,670L131,577Z" />
      <glyph unicode="&#xeb;" glyph-name="gid75" horiz-adv-x="581" d="M310-14Q245-14 194.5,4T109,56T55.5,140T37,253q0,62 17.5,114.5t51.5,91T189,518t111,21q60,0 107-19.5T485.5,461t46-95.5T542,236l-412-4v79l329,3l-51-40q7,53-7,87t-40.5,50T302,427q-38,0-67-20t-45-58.5T174,256q0-85 37.5-125T310,91q28,0 47.5,7.5t32,19.5t20,27T422,175l125-27q-9-37-26.5-66.5T474,30.5t-69.5-33T310-14Zm86,625q-32,0-51.5,14T325,673q0,33 19.5,47.5T396,735t51-14.5T466,673q0-35-19.5-48.5T396,611Zm-206,0q-32,0-51.5,13.5T119,673q0,33 19,47.5T190,735q31,0 51-14.5T261,673q0-34-19.5-48T190,611Z" />
      <glyph unicode="&#xec;" glyph-name="gid86" horiz-adv-x="277" d="M67,0V525H210V0H67ZM95,597L-13,766H130l74-169H95Z" />
      <glyph unicode="&#xed;" glyph-name="gid82" horiz-adv-x="276" d="M66,0V525H210V0H66ZM184,597H74l75,169H292L184,597Z" />
      <glyph unicode="&#xee;" glyph-name="gid83" horiz-adv-x="276" d="M66,0V525H210V0H66ZM-1,576V688l140,82l140-82V576L139,659L-1,576Z" />
      <glyph unicode="&#xef;" glyph-name="gid84" horiz-adv-x="276" d="M66,0V525H210V0H66ZM224,610q-31,0-48,15.5T159,671q0,31 17,46.5T224,733q30,0 46.5-15.5T287,671q0-30-16.5-45.5T224,610ZM52,610q-31,0-48,15.5T-13,671q0,31 17,46.5T52,733t48.5-15.5T118,671q0-30-17.5-45.5T52,610Z" />
      <glyph unicode="&#xf0;" glyph-name="gid71" horiz-adv-x="612" d="M302-15Q239-15 189.5,1T106,48T54.5,125T37,231q0,74 25,128t71,83.5T239,472q40,0 80.5-15.5t72-50.5T434,310h23q-4,32-18,70t-40,77t-68,74T230.5,593.5T93,635l23,82q88-12 156-37.5t119-61t86-78T534,451t31.5-95t9.5-96q0-64-16.5-115T508,58.5T422.5,4T302-15Zm-1,117q28,0 49.5,9.5T388,138t24,42t8,56v6q0,24-9,46.5t-25.5,41T346,359t-51,11q-36,0-61.5-19.5t-38-50.5T183,234q0-36 13.5-66t40-48T301,102ZM150,560L393,716l46-57L194,502l-44,58Z" />
      <glyph unicode="&#xf1;" glyph-name="gid93" horiz-adv-x="631" d="M66,0V318V525H184l-1-157h20q13,57 37,95t60.5,57T387,539q91,0 138.5-64T573,274V0H428V258q0,84-24.5,122.5T332,419q-40,0-67-25t-40.5-65.5T210,238V0H66ZM421,592q-22,0-46,8t-47.5,18.5t-43.5,19T251,646q-17,0-21-14.5T229,599H163q-17,35-13,67t24,51.5T226,737q21,0 44.5-8T317,711t42.5-18t31.5-8q18,0 21.5,15.5T413,732h66q14-34 12-66.5t-19-53T421,592Z" />
      <glyph unicode="&#xf2;" glyph-name="gid98" horiz-adv-x="609" d="M304-14q-79,0-139,31.5t-94,93T37,264T71.5,417t95,91.5T304,539q79,0 139.5-31t95-92.5T573,262q0-93-35.5-154.5T441.5,16T304-14Zm5,107q39,0 65.5,18t40,54.5T428,254q0,55-14.5,93.5t-42.5,59T300,427q-37,0-64-17.5t-41-54T181,266q0-85 34-129t94-44ZM260,597L152,766H295l75-169H260Z" />
      <glyph unicode="&#xf3;" glyph-name="gid95" horiz-adv-x="609" d="M304-14q-79,0-139,31.5t-94,93T37,264T71.5,417t95,91.5T304,539q79,0 139.5-31t95-92.5T573,262q0-93-35.5-154.5T441.5,16T304-14Zm5,107q39,0 65.5,18t40,54.5T428,254q0,55-14.5,93.5t-42.5,59T300,427q-37,0-64-17.5t-41-54T181,266q0-85 34-129t94-44Zm40,504H239l75,169H457L349,597Z" />
      <glyph unicode="&#xf4;" glyph-name="gid96" horiz-adv-x="609" d="M304-14q-79,0-139,31.5t-94,93T37,264T71.5,417t95,91.5T304,539q79,0 139.5-31t95-92.5T573,262q0-93-35.5-154.5T441.5,16T304-14Zm5,107q39,0 65.5,18t40,54.5T428,254q0,55-14.5,93.5t-42.5,59T300,427q-37,0-64-17.5t-41-54T181,266q0-85 34-129t94-44ZM140,577V684l164,93l164-93V577L304,670L140,577Z" />
      <glyph unicode="&#xf5;" glyph-name="gid100" horiz-adv-x="609" d="M304-14q-79,0-139,31.5t-94,93T37,264T71.5,417t95,91.5T304,539q79,0 139.5-31t95-92.5T573,262q0-93-35.5-154.5T441.5,16T304-14Zm5,107q39,0 65.5,18t40,54.5T428,254q0,55-14.5,93.5t-42.5,59T300,427q-37,0-64-17.5t-41-54T181,266q0-85 34-129t94-44Zm96,499q-22,0-46,8t-47.5,18.5t-43.5,19T235,646q-17,0-21-14.5T213,599H147q-17,35-13,67t24,51.5T210,737q21,0 44.5-8T301,711t42.5-18t31.5-8q18,0 21.5,15.5T397,732h66q14-34 12-66.5t-19-53T405,592Z" />
      <glyph unicode="&#xf6;" glyph-name="gid97" horiz-adv-x="609" d="M304-14q-79,0-139,31.5t-94,93T37,264T71.5,417t95,91.5T304,539q79,0 139.5-31t95-92.5T573,262q0-93-35.5-154.5T441.5,16T304-14Zm5,107q39,0 65.5,18t40,54.5T428,254q0,55-14.5,93.5t-42.5,59T300,427q-37,0-64-17.5t-41-54T181,266q0-85 34-129t94-44Zm97,518q-32,0-51.5,14T335,673q0,33 19.5,47.5T406,735t51-14.5T476,673q0-35-19.5-48.5T406,611Zm-206,0q-32,0-51.5,13.5T129,673q0,33 19,47.5T200,735q31,0 51-14.5T271,673q0-34-19.5-48T200,611Z" />
      <glyph unicode="&#xf7;" glyph-name="gid234" horiz-adv-x="528" d="M58,254V381H470V254H58ZM263,444q-31,0-51.5,18T191,513q0,34 21,51.5T263,582q33,0 53.5-18T337,513q0-32-20.5-50.5T263,444Zm1-392q-32,0-52.5,18T191,120q0,34 21,52t51,18q33,0 53.5-18.5T337,120q0-32-20.5-50T264,52Z" />
      <glyph unicode="&#xf8;" glyph-name="gid99" horiz-adv-x="609" d="M128-53L402,580h77L204-53H128ZM304-14q-79,0-139,31.5t-94,93T37,264T71.5,417t95,91.5T304,539q79,0 139.5-31t95-92.5T573,262q0-93-35.5-154.5T441.5,16T304-14Zm5,107q39,0 65.5,18t40,54.5T428,254q0,55-14.5,93.5t-42.5,59T300,427q-37,0-64-17.5t-41-54T181,266q0-85 34-129t94-44Z" />
      <glyph unicode="&#xf9;" glyph-name="gid113" horiz-adv-x="622" d="M244-14q-92,0-138.5,62.5T59,239V525H203V257q0-77 23-114.5T296,105q28,0 49,14t36,39t22.5,59t8.5,73V525H556V214V0H440l-1,164H421q-15-62-37.5-101.5t-57-58T244-14Zm19,611L155,766H298l75-169H263Z" />
      <glyph unicode="&#xfa;" glyph-name="gid110" horiz-adv-x="622" d="M244-14q-92,0-138.5,62.5T59,239V525H203V257q0-77 23-114.5T296,105q28,0 49,14t36,39t22.5,59t8.5,73V525H556V214V0H440l-1,164H421q-15-62-37.5-101.5t-57-58T244-14ZM352,597H242l75,169H460L352,597Z" />
      <glyph unicode="&#xfb;" glyph-name="gid111" horiz-adv-x="622" d="M244-14q-92,0-138.5,62.5T59,239V525H203V257q0-77 23-114.5T296,105q28,0 49,14t36,39t22.5,59t8.5,73V525H556V214V0H440l-1,164H421q-15-62-37.5-101.5t-57-58T244-14ZM143,577V684l164,93l164-93V577L307,670L143,577Z" />
      <glyph unicode="&#xfc;" glyph-name="gid112" horiz-adv-x="622" d="M244-14q-92,0-138.5,62.5T59,239V525H203V257q0-77 23-114.5T296,105q28,0 49,14t36,39t22.5,59t8.5,73V525H556V214V0H440l-1,164H421q-15-62-37.5-101.5t-57-58T244-14ZM408,611q-32,0-51.5,14T337,673q0,33 19.5,47.5T408,735t51-14.5T478,673q0-35-19.5-48.5T408,611Zm-206,0q-32,0-51.5,13.5T131,673q0,33 19,47.5T202,735q31,0 51-14.5T273,673q0-34-19.5-48T202,611Z" />
      <glyph unicode="&#xfd;" glyph-name="gid118" horiz-adv-x="602" d="M265-182q-40,0-81.5,7.5t-78,23T43-112L84,11q32-33 80-49.5T259-55q53,0 88.5,21.5t54,66T423,144l6,91H407q-10-66-32.5-108t-57-61.5T236,46q-57,0-96,29T81.5,162T62,305V525H206V340q0-93 21-134t64-41q23,0 42,12.5T365.5,214t21,58.5T394,351V525H538V139q0-63-11-114.5t-32.5-90T440-130t-76.5-39T265-182Zm85,779H240l75,169H458L350,597Z" />
      <glyph unicode="&#xfe;" glyph-name="gid103" horiz-adv-x="638" d="M66-160V261V715H210V543q0-24-3-51.5T198.5,435T187,375h22q13,50 35.5,86.5t57.5,56T385,537q66,0 114-34t74.5-96T600,259q0-83-26-145T499.5,18.5T384-15q-50,0-87,19.5T237,61t-32,91H184q5-19 9.5-42T202,63t6-47.5T210-30V-160H66ZM333,102q36,0 62,19.5t40,56T449,263q0,48-13.5,83.5t-38.5,55T336,421q-24,0-44-9t-35-24.5t-26-35T215,312t-5-40V253q0-23 7-49.5T239.5,154T278,116.5T333,102Z" />
      <glyph unicode="&#xff;" glyph-name="gid119" horiz-adv-x="602" d="M265-182q-40,0-81.5,7.5t-78,23T43-112L84,11q32-33 80-49.5T259-55q53,0 88.5,21.5t54,66T423,144l6,91H407q-10-66-32.5-108t-57-61.5T236,46q-57,0-96,29T81.5,162T62,305V525H206V340q0-93 21-134t64-41q23,0 42,12.5T365.5,214t21,58.5T394,351V525H538V139q0-63-11-114.5t-32.5-90T440-130t-76.5-39T265-182ZM407,611q-32,0-51.5,14T336,673q0,33 19.5,47.5T407,735t51-14.5T477,673q0-35-19.5-48.5T407,611Zm-206,0q-32,0-51.5,13.5T130,673q0,33 19,47.5T201,735q31,0 51-14.5T272,673q0-34-19.5-48T201,611Z" />
      <glyph unicode="&#x2013;" glyph-name="gid193" horiz-adv-x="537" d="M30,201V331H506V201H30Z" />
      <glyph unicode="&#x2014;" glyph-name="gid194" horiz-adv-x="803" d="M30,201V331H773V201H30Z" />
      <glyph unicode="&#x2018;" glyph-name="gid206" horiz-adv-x="205" d="M188,716q-18-45-25.5-85t-9-80.5T152,462H20q0,68 8.5,116.5T50,660t27,56H188Z" />
      <glyph unicode="&#x2019;" glyph-name="gid207" horiz-adv-x="205" d="M17,460q18,46 25.5,86t9,80.5T53,715H185q0-68-8-116.5t-21.5-82T128,460H17Z" />
      <glyph unicode="&#x201a;" glyph-name="gid202" horiz-adv-x="196" d="M4-132Q22-86 29.5-46t9,80.5T40,123H172q0-68-8-116.5t-21.5-82T115-132H4Z" />
      <glyph unicode="&#x201c;" glyph-name="gid204" horiz-adv-x="399" d="M383,716q-18-45-25.5-85t-9-80.5T347,462H215q0,68 8.5,116.5t21,81.5T272,716H383Zm-195,0q-18-45-25.5-85t-9-80.5T152,462H20q0,68 8.5,116.5T50,660t27,56H188Z" />
      <glyph unicode="&#x201d;" glyph-name="gid205" horiz-adv-x="399" d="M17,460q18,46 25.5,86t9,80.5T53,715H185q0-68-8-116.5t-21.5-82T128,460H17Zm194,0q18,46 25.5,86t9,80.5T247,715H379q0-68-8-116.5t-21.5-82T322,460H211Z" />
      <glyph unicode="&#x201e;" glyph-name="gid203" horiz-adv-x="390" d="M4-73Q22-27 29.5,13t9,80.5T40,182H172q0-68-8-116.5t-21.5-82T115-73H4Zm194,0q18,46 25.5,86t9,80.5T234,182H366q0-68-8-116.5t-21.5-82T309-73H198Z" />
      <glyph unicode="&#x2022;" glyph-name="gid185" horiz-adv-x="327" d="M163,146q-71,0-106,30T22,269q0,64 35,94t106,30t106.5-30T305,269q0-63-35.5-93T163,146Z" />
      <glyph unicode="&#x2039;" glyph-name="gid210" horiz-adv-x="243" d="M76,87q-10,51-24.5,97T21,274q17,44 31,89t24,95H216q-13-50-31.5-95T146,274q20-44 38.5-90T216,87H76Z" />
      <glyph unicode="&#x203a;" glyph-name="gid211" horiz-adv-x="238" d="M162,87H22q14,51 32,97t38,90q-20,44-38,89T22,458H162q10-50 24-95t30-89q-16-44-30-90T162,87Z" />
    </font>
</defs>
</svg>
