<svg width="120" height="120" viewBox="0 0 120 120" fill="none" xmlns="http://www.w3.org/2000/svg">
<path d="M60 15C54.0326 20.9674 50.6802 29.0609 50.6802 37.5C50.6802 45.9391 54.0326 54.0326 60 60C65.9674 65.9674 74.0609 69.3198 82.5 69.3198C90.9392 69.3198 99.0326 65.9674 105 60C105 68.9002 102.361 77.6004 97.4162 85.0007C92.4715 92.4009 85.4434 98.1686 77.2208 101.575C68.9981 104.981 59.9501 105.872 51.221 104.135C42.4918 102.399 34.4736 98.1132 28.1802 91.8198C21.8869 85.5264 17.601 77.5082 15.8647 68.7791C14.1283 60.0499 15.0195 51.0019 18.4254 42.7792C21.8314 34.5566 27.5991 27.5285 34.9994 22.5839C42.3996 17.6392 51.0999 15 60 15Z" fill="#01CDA9" stroke="black" stroke-width="6" stroke-linecap="round" stroke-linejoin="round"/>
</svg>
