<svg width="128" height="128" viewBox="0 0 128 128" fill="none" xmlns="http://www.w3.org/2000/svg">
<path d="M113.945 73.9451C111.533 81.876 107.108 89.0471 101.101 94.7599C95.0946 100.473 87.7106 104.532 79.6686 106.544C71.6266 108.555 63.2008 108.449 55.2119 106.237C47.2229 104.025 39.943 99.7809 34.0813 93.9192C28.2197 88.0575 23.9759 80.7777 21.7635 72.7887C19.5511 64.7997 19.4454 56.3739 21.4567 48.3319C23.468 40.2899 27.5278 32.9059 33.2406 26.899C38.9534 20.8922 46.1245 16.4672 54.0555 14.0551C51.5409 22.3754 51.3305 31.222 53.4468 39.6525C55.5631 48.0829 59.9268 55.7813 66.073 61.9275C72.2192 68.0737 79.9176 72.4374 88.3481 74.5537C96.7785 76.67 105.625 76.4597 113.945 73.9451Z" fill="#01CDA9"/>
<path d="M116.77 71.115C116.257 70.6008 115.614 70.2361 114.909 70.0599C114.204 69.8837 113.465 69.9027 112.77 70.115C105.143 72.4208 97.0331 72.6141 89.3048 70.6744C81.5764 68.7346 74.5191 64.7345 68.8848 59.1002C63.2506 53.466 59.2504 46.4086 57.3107 38.6803C55.371 30.9519 55.5643 22.8421 57.8701 15.215C58.0841 14.52 58.1046 13.7798 57.9294 13.074C57.7542 12.3683 57.3899 11.7236 56.8757 11.2094C56.3615 10.6952 55.7168 10.3309 55.011 10.1557C54.3053 9.98048 53.5651 10.001 52.8701 10.215C42.3252 13.4452 33.0678 19.9189 26.4151 28.715C20.5972 36.4393 17.0484 45.6328 16.1674 55.2628C15.2865 64.8928 17.1083 74.5777 21.4281 83.2294C25.748 91.8811 32.3948 99.1568 40.6218 104.239C48.8487 109.321 58.3299 112.009 68.0001 112C79.2818 112.035 90.2634 108.367 99.2601 101.56C108.056 94.9073 114.53 85.6498 117.76 75.105C117.972 74.4126 117.991 73.6757 117.817 72.973C117.643 72.2704 117.281 71.6282 116.77 71.115ZM94.4501 95.17C85.9778 101.551 75.4856 104.657 64.9048 103.917C54.3241 103.176 44.3671 98.6377 36.8668 91.1379C29.3665 83.6382 24.8277 73.6816 24.086 63.1009C23.3442 52.5203 26.4495 42.0278 32.8301 33.555C36.9871 28.0653 42.3614 23.6152 48.5301 20.555C48.1787 23.0211 48.0016 25.5089 48.0001 28C48.0147 41.7868 53.4979 55.0047 63.2466 64.7534C72.9954 74.5022 86.2133 79.9854 100 80C102.496 79.9992 104.989 79.8221 107.46 79.47C104.397 85.6397 99.9434 91.0141 94.4501 95.17Z" fill="black"/>
</svg>
