<svg width="128" height="128" viewBox="0 0 128 128" fill="none" xmlns="http://www.w3.org/2000/svg">
<circle cx="64" cy="64" r="64" fill="#20B2AA"/>
<path d="M114.787 99.5617C115.692 100.195 115.915 101.445 115.253 102.329C108.598 111.228 99.732 118.252 89.5199 122.692C78.6959 127.398 66.7811 129.02 55.0929 127.377C43.4048 125.734 32.3985 120.892 23.291 113.384C14.1835 105.876 7.32951 95.9964 3.48681 84.8364C-0.355878 73.6764 -1.03759 61.6711 1.51705 50.1479C4.07169 38.6246 9.76317 28.0323 17.9622 19.5419C26.1613 11.0515 36.5486 4.9938 47.9757 2.03855C58.7566 -0.749584 70.0668 -0.673755 80.7902 2.24169C81.8561 2.53147 82.45 3.6528 82.127 4.7091L76.7474 22.3051C76.4245 23.3614 75.3072 23.951 74.2366 23.6791C67.4686 21.9608 60.3653 21.9713 53.5842 23.7251C46.1566 25.646 39.4049 29.5835 34.0755 35.1022C28.7461 40.621 25.0466 47.506 23.3861 54.9961C21.7256 62.4862 22.1687 70.2897 24.6664 77.5436C27.1642 84.7976 31.6193 91.2196 37.5391 96.0996C43.459 100.98 50.6131 104.127 58.2104 105.195C65.8077 106.263 73.5523 105.209 80.588 102.15C87.0112 99.3568 92.6152 94.9918 96.8906 89.471C97.5669 88.5976 98.8102 88.3744 99.715 89.0079L114.787 99.5617Z" fill="white"/>
</svg>
